<svg version="1.2" xmlns="http://www.w3.org/2000/svg" viewBox="0 0 12 8" width="12" height="8"><defs><clipPath clipPathUnits="userSpaceOnUse" id="cp1"><path d="m-135-68h595v842h-595z"/></clipPath></defs><style>.a{fill:#fff}</style><g clip-path="url(#cp1)"><path fill-rule="evenodd" class="a" d="m11.7 1v6c0 0.6-0.5 1-1 1h-8.7c-0.6 0-1-0.4-1-1v-6c0-0.6 0.4-1 1-1h8.7c0.5 0 1 0.4 1 1zm-9.7 0v0.9c0.5 0.3 1.2 0.9 2.8 2.2 0.4 0.2 1 0.9 1.5 0.9 0.5 0 1.2-0.7 1.6-0.9 1.6-1.3 2.3-1.9 2.8-2.2v-0.9zm8.6 6v-3.9c-0.4 0.4-1.1 0.9-2.2 1.8-0.4 0.3-1.2 1.1-2.1 1.1-0.9 0-1.7-0.8-2.1-1.1-1.1-0.9-1.8-1.4-2.2-1.8v3.9z"/></g></svg>