<svg version="1.2" xmlns="http://www.w3.org/2000/svg" viewBox="0 0 16 16" width="16" height="16"><defs><clipPath clipPathUnits="userSpaceOnUse" id="cp1"><path d="m-464-15h595v842h-595z"/></clipPath></defs><style>.a{fill:#fff}.b{fill:#434e5e}</style><g clip-path="url(#cp1)"><path class="a" d="m0 2c0-1.1 0.9-2 2-2h12c1.1 0 2 0.9 2 2v12c0 1.1-0.9 2-2 2h-12c-1.1 0-2-0.9-2-2z"/><path fill-rule="evenodd" class="b" d="m5.2 12.8h-2v-6.5h2zm0.2-8.7c0-0.6-0.5-1.2-1.2-1.2-0.7 0-1.2 0.6-1.2 1.2 0 0.7 0.5 1.2 1.2 1.2 0.7 0 1.2-0.5 1.2-1.2zm7.6 8.7v-3.6c0-1.8-0.4-3.2-2.5-3.2-1 0-1.7 0.6-1.9 1.1h-0.1v-0.9h-2v6.6h2.1v-3.3c0-0.8 0.2-1.7 1.3-1.7 1 0 1 1 1 1.8v3.2z"/></g></svg>