<svg version="1.2" xmlns="http://www.w3.org/2000/svg" viewBox="0 0 8 12" width="8" height="12"><defs><clipPath clipPathUnits="userSpaceOnUse" id="cp1"><path d="m-138-86h595v842h-595z"/></clipPath></defs><style>.a{fill:#fff}</style><g clip-path="url(#cp1)"><path fill-rule="evenodd" class="a" d="m7.5 1.1v9.8c0 0.6-0.5 1.1-1.1 1.1h-5.3c-0.6 0-1.1-0.5-1.1-1.1v-9.8c0-0.6 0.5-1.1 1.1-1.1h5.3c0.6 0 1.1 0.5 1.1 1.1zm-3 9.4c0-0.4-0.3-0.8-0.8-0.8-0.4 0-0.7 0.4-0.7 0.8 0 0.4 0.3 0.7 0.7 0.7 0.5 0 0.8-0.3 0.8-0.7zm1.9-9.1c0-0.1-0.2-0.3-0.3-0.3h-4.7c-0.1 0-0.3 0.2-0.3 0.3v7.3c0 0.2 0.2 0.3 0.3 0.3h4.7c0.1 0 0.3-0.1 0.3-0.3z"/></g></svg>