<svg version="1.2" xmlns="http://www.w3.org/2000/svg" viewBox="0 0 16 16" width="16" height="16"><defs><clipPath clipPathUnits="userSpaceOnUse" id="cp1"><path d="m-464-90h595v842h-595z"/></clipPath></defs><style>.a{fill:#fff}.b{fill:#434e5e}</style><g clip-path="url(#cp1)"><path class="a" d="m0 2c0-1.1 0.9-2 2-2h12c1.1 0 2 0.9 2 2v12c0 1.1-0.9 2-2 2h-12c-1.1 0-2-0.9-2-2z"/><path fill-rule="evenodd" class="b" d="m6.2 6.1c0.3-1.8 1-3.1 1.8-3.1 0.8 0 1.5 1.3 1.8 3.1zm-0.1 0.6h3.7q0.1 0.6 0.1 1.3 0 0.7-0.1 1.3h-3.7q-0.1-0.6-0.1-1.3 0-0.7 0.1-1.3zm4.3-0.6c-0.2-1.2-0.5-2.2-1-2.9 1.4 0.4 2.6 1.5 3.2 2.9zm-4.9 0h-2.2c0.6-1.4 1.8-2.5 3.2-2.9-0.5 0.7-0.8 1.7-1 2.9zm7.4 1.9q0 0.7-0.1 1.3h-2.3q0-0.6 0-1.3 0-0.7 0-1.3h2.3q0.1 0.6 0.1 1.3zm-7.5 1.3h-2.3q-0.1-0.6-0.2-1.3 0.1-0.7 0.2-1.3h2.3q0 0.6 0 1.3 0 0.7 0 1.3zm4.3 0.6c-0.3 1.8-0.9 3.1-1.8 3.1-0.8 0-1.4-1.3-1.7-3.1zm0.6 0h2.2c-0.6 1.4-1.8 2.5-3.2 2.9 0.5-0.7 0.8-1.7 1-2.9zm-4.9 0c0.2 1.2 0.6 2.2 1.1 2.9-1.5-0.4-2.7-1.5-3.2-2.9z"/></g></svg>