<svg version="1.2" xmlns="http://www.w3.org/2000/svg" viewBox="0 0 16 16" width="16" height="16"><defs><clipPath clipPathUnits="userSpaceOnUse" id="cp1"><path d="m-464-65h595v842h-595z"/></clipPath></defs><style>.a{fill:#fff}.b{fill:#434e5e}</style><g clip-path="url(#cp1)"><path class="a" d="m0 2c0-1.1 0.9-2 2-2h12c1.1 0 2 0.9 2 2v12c0 1.1-0.9 2-2 2h-12c-1.1 0-2-0.9-2-2z"/><path fill-rule="evenodd" class="b" d="m14 6.2v3.6c0 0.2-0.1 0.4-0.2 0.5l-5.5 3.6q-0.3 0.2-0.6 0l-5.5-3.6c-0.1-0.1-0.2-0.3-0.2-0.5v-3.6c0-0.2 0.1-0.4 0.2-0.5l5.5-3.6q0.3-0.2 0.6 0l5.5 3.6c0.1 0.1 0.2 0.3 0.2 0.5zm-5.5-0.3l2.3 1.5 1.8-1.2-4.1-2.7zm-5.1 0.3l1.8 1.2 2.3-1.5v-2.4zm-0.4 2.7l1.3-0.9-1.3-0.9zm4.4 1.3l-2.2-1.5-1.8 1.2 4 2.7zm2.4-2.1l-1.9-1.2-1.8 1.2 1.8 1.2zm2.8 1.8l-1.8-1.2-2.3 1.5v2.4zm0.4-2.7l-1.2 0.9 1.2 0.9z"/></g></svg>